<?xml version="1.0" encoding="UTF-8" ?>
<!DOCTYPE svg PUBLIC "-//W3C//DTD SVG 1.1//EN" "http://www.w3.org/Graphics/SVG/1.1/DTD/svg11.dtd">
<svg width="555pt" height="512pt" viewBox="0 0 555 512" version="1.1" xmlns="http://www.w3.org/2000/svg">
<g id="#07090aff">
<path fill="#07090a" opacity="1.00" d=" M 0.00 0.00 L 555.00 0.00 L 555.00 512.00 L 0.00 512.00 L 0.00 0.00 M 428.47 88.33 C 421.29 92.88 413.82 96.96 406.44 101.18 C 382.32 114.97 358.33 129.00 334.09 142.58 C 332.49 143.38 328.82 145.01 331.36 147.05 C 362.05 164.62 392.70 182.30 423.40 199.85 C 426.09 201.19 428.29 203.94 431.53 203.70 C 431.55 165.38 431.46 127.05 431.58 88.73 C 430.76 87.10 429.73 86.97 428.47 88.33 M 135.25 121.45 C 124.90 141.46 119.22 164.40 122.05 186.94 C 124.19 201.12 129.91 214.74 138.71 226.09 C 153.92 246.00 175.52 259.88 197.87 270.57 C 250.27 293.90 302.78 317.03 355.24 340.24 C 367.94 345.18 380.14 351.71 390.61 360.52 C 401.73 369.59 410.19 381.65 415.92 394.75 C 418.06 392.27 419.14 389.14 420.52 386.23 C 422.41 381.26 425.02 376.42 425.79 371.12 L 425.95 369.43 L 427.30 370.78 L 427.25 369.00 C 427.40 365.77 428.57 362.70 429.15 359.54 C 430.59 354.12 430.46 348.51 431.37 343.01 C 431.94 337.97 430.49 333.06 430.48 328.04 C 428.47 310.90 420.05 295.08 408.78 282.21 C 393.70 265.27 374.01 253.26 353.77 243.46 C 300.93 220.17 248.18 196.67 195.33 173.44 C 171.45 164.36 149.67 147.45 138.58 124.03 C 138.32 122.82 138.20 121.58 138.19 120.34 C 137.20 120.62 135.83 120.38 135.25 121.45 M 121.10 310.34 C 121.26 312.89 121.36 315.46 121.33 318.03 C 121.15 354.53 121.49 391.03 121.16 427.53 C 135.44 419.48 149.67 411.28 163.88 403.08 C 183.54 391.67 203.46 380.72 222.90 368.95 C 213.42 362.52 203.14 357.33 193.29 351.48 C 170.13 338.12 146.84 324.99 123.80 311.45 C 123.12 311.17 121.77 310.62 121.10 310.34 Z" />
</g>
<g id="#fefefeff">
<path fill="#fefefe" opacity="1.00" d=" M 428.47 88.33 C 429.73 86.97 430.76 87.10 431.58 88.73 C 431.46 127.05 431.55 165.38 431.53 203.70 C 428.29 203.94 426.09 201.19 423.40 199.85 C 392.70 182.30 362.05 164.62 331.36 147.05 C 328.82 145.01 332.49 143.38 334.09 142.58 C 358.33 129.00 382.32 114.97 406.44 101.18 C 413.82 96.96 421.29 92.88 428.47 88.33 Z" />
<path fill="#fefefe" opacity="1.00" d=" M 135.25 121.45 C 135.83 120.38 137.20 120.62 138.19 120.34 C 138.20 121.58 138.32 122.82 138.58 124.03 C 149.67 147.45 171.45 164.36 195.33 173.44 C 248.18 196.67 300.93 220.17 353.77 243.46 C 374.01 253.26 393.70 265.27 408.78 282.21 C 420.05 295.08 428.47 310.90 430.48 328.04 C 430.49 333.06 431.94 337.97 431.37 343.01 C 430.46 348.51 430.59 354.12 429.15 359.54 C 428.57 362.70 427.40 365.77 427.25 369.00 L 427.30 370.78 L 425.95 369.43 L 425.79 371.12 C 425.02 376.42 422.41 381.26 420.52 386.23 C 419.14 389.14 418.06 392.27 415.92 394.75 C 410.19 381.65 401.73 369.59 390.61 360.52 C 380.14 351.71 367.94 345.18 355.24 340.24 C 302.78 317.03 250.27 293.90 197.87 270.57 C 175.52 259.88 153.92 246.00 138.71 226.09 C 129.91 214.74 124.19 201.12 122.05 186.94 C 119.22 164.40 124.90 141.46 135.25 121.45 Z" />
<path fill="#fefefe" opacity="1.00" d=" M 121.10 310.34 C 121.77 310.62 123.12 311.17 123.80 311.45 C 146.84 324.99 170.13 338.12 193.29 351.48 C 203.14 357.33 213.42 362.52 222.90 368.95 C 203.46 380.72 183.54 391.67 163.88 403.08 C 149.67 411.28 135.44 419.48 121.16 427.53 C 121.49 391.03 121.15 354.53 121.33 318.03 C 121.36 315.46 121.26 312.89 121.10 310.34 Z" />
</g>
</svg>
